<svg width="75" height="77" viewBox="0 0 75 77" fill="none" xmlns="http://www.w3.org/2000/svg">
<path d="M19.1049 63.9438H16.8365C16.7718 63.5718 16.6525 63.2422 16.4786 62.9551C16.3047 62.664 16.0884 62.4174 15.8296 62.2152C15.5708 62.013 15.2756 61.8614 14.9441 61.7603C14.6165 61.6551 14.2627 61.6026 13.8826 61.6026C13.2073 61.6026 12.6089 61.7724 12.0873 62.1121C11.5656 62.4477 11.1572 62.941 10.862 63.592C10.5669 64.239 10.4193 65.0295 10.4193 65.9636C10.4193 66.9138 10.5669 67.7145 10.862 68.3655C11.1613 69.0125 11.5697 69.5017 12.0873 69.8333C12.6089 70.1608 13.2053 70.3246 13.8765 70.3246C14.2486 70.3246 14.5963 70.2761 14.9198 70.179C15.2473 70.0779 15.5405 69.9304 15.7993 69.7363C16.0621 69.5422 16.2825 69.3036 16.4604 69.0205C16.6424 68.7375 16.7677 68.414 16.8365 68.0501L19.1049 68.0622C19.02 68.6526 18.836 69.2065 18.553 69.7241C18.274 70.2417 17.908 70.6986 17.4551 71.0949C17.0022 71.4871 16.4725 71.7944 15.866 72.0168C15.2595 72.2352 14.5862 72.3444 13.8462 72.3444C12.7544 72.3444 11.7799 72.0917 10.9227 71.5862C10.0655 71.0808 9.39018 70.3509 8.89686 69.3966C8.40354 68.4423 8.15688 67.298 8.15688 65.9636C8.15688 64.6252 8.40556 63.4808 8.90292 62.5306C9.40028 61.5763 10.0776 60.8464 10.9348 60.341C11.7921 59.8355 12.7625 59.5828 13.8462 59.5828C14.5377 59.5828 15.1806 59.6798 15.775 59.8739C16.3694 60.068 16.8991 60.3531 17.3641 60.7291C17.8292 61.1012 18.2113 61.5581 18.5105 62.0999C18.8138 62.6377 19.0119 63.2524 19.1049 63.9438ZM21.1656 72.1745V59.7526H23.4159V65.0113H29.1719V59.7526H31.4283V72.1745H29.1719V66.8977H23.4159V72.1745H21.1656ZM63.4763 72.1745H61.0744L65.4475 59.7526H68.2255L72.6047 72.1745H70.2028L66.885 62.3001H66.788L63.4763 72.1745ZM63.5551 67.304H70.1058V69.1115H63.5551V67.304Z" fill="white"/>
<path d="M41.7061 59.7526H43.9563V67.8681C43.9563 68.7577 43.7461 69.5401 43.3255 70.2154C42.9091 70.8907 42.3227 71.4184 41.5666 71.7985C40.8104 72.1745 39.9269 72.3626 38.916 72.3626C37.9011 72.3626 37.0155 72.1745 36.2594 71.7985C35.5032 71.4184 34.9169 70.8907 34.5004 70.2154C34.0839 69.5401 33.8757 68.7577 33.8757 67.8681V59.7526H36.1259V67.6801C36.1259 68.1977 36.2391 68.6586 36.4656 69.063C36.6961 69.4674 37.0196 69.7848 37.436 70.0153C37.8525 70.2417 38.3459 70.3549 38.916 70.3549C39.4861 70.3549 39.9795 70.2417 40.396 70.0153C40.8165 69.7848 41.14 69.4674 41.3664 69.063C41.5929 68.6586 41.7061 68.1977 41.7061 67.6801V59.7526ZM46.4022 59.7526H49.1559L52.8437 68.7537H52.9892L56.677 59.7526H59.4307V72.1745H57.2714V63.6405H57.1562L53.7231 72.1382H52.1097L48.6767 63.6223H48.5615V72.1745H46.4022V59.7526Z" fill="#FF7C03"/>
<path d="M65.4263 2.90931V45.9513C65.4263 46.359 65.2306 46.75 64.8823 47.0383C64.5339 47.3265 64.0615 47.4885 63.5688 47.4885H11.5598C11.0672 47.4885 10.5947 47.3265 10.2464 47.0383C9.89803 46.75 9.70233 46.359 9.70233 45.9513V2.90931C9.70233 2.50162 9.89803 2.11062 10.2464 1.82234C10.5947 1.53406 11.0672 1.3721 11.5598 1.3721H63.5688C64.0615 1.3721 64.5339 1.53406 64.8823 1.82234C65.2306 2.11062 65.4263 2.50162 65.4263 2.90931Z" stroke="#FF7C03" stroke-width="1.28101" stroke-linecap="round" stroke-linejoin="round"/>
<path d="M43.7558 19.3063V18.7939C43.7558 18.1883 43.6117 17.5886 43.3317 17.0291C43.0516 16.4696 42.6412 15.9612 42.1237 15.5329C41.6063 15.1047 40.992 14.765 40.3159 14.5333C39.6398 14.3015 38.9152 14.1822 38.1834 14.1822H36.9451C35.4672 14.1822 34.0499 14.6681 33.0049 15.5329C31.9598 16.3978 31.3727 17.5708 31.3727 18.7939V30.0668C31.3727 31.2898 31.9598 32.4628 33.0049 33.3277C34.0499 34.1925 35.4672 34.6784 36.9451 34.6784H38.1834C39.6613 34.6784 41.0787 34.1925 42.1237 33.3277C43.1688 32.4628 43.7558 31.2898 43.7558 30.0668V29.5544" stroke="#FF7C03" stroke-width="1.28101" stroke-linecap="round" stroke-linejoin="round"/>
</svg>
